<svg height="464pt" viewBox="-48 0 464 464" width="464pt" xmlns="http://www.w3.org/2000/svg"><path d="m215.34375 415.832031c.421875 5.246094-1.175781 10.457031-4.464844 14.566407l-16.480468 20.601562c-1.921876 2.402344-2.296876 5.691406-.964844 8.464844 1.332031 2.773437 4.136718 4.535156 7.214844 4.535156h142.703124c3.078126 0 5.882813-1.761719 7.214844-4.535156 1.332032-2.773438.957032-6.0625-.964844-8.464844l-16.480468-20.601562c-3.289063-4.109376-4.886719-9.320313-4.464844-14.566407l38.464844-383.03125c.222656-2.242187-.507813-4.476562-2.015625-6.152343-1.507813-1.675782-3.652344-2.636719-5.90625-2.648438h-79.199219v23.144531c.179688 8.039063-5.429688 15.046875-13.3125 16.640625-4.648438.792969-9.410156-.507812-13.011719-3.550781-3.601562-3.042969-5.679687-7.519531-5.675781-12.234375v23.144531c.179688 8.039063-5.429688 15.046875-13.3125 16.640625-4.648438.792969-9.410156-.507812-13.011719-3.550781-3.601562-3.042969-5.679687-7.519531-5.675781-12.234375v-48h-31.199219c-2.261719 0-4.417969.957031-5.933593 2.632812-1.515626 1.675782-2.253907 3.917969-2.027344 6.167969zm0 0" fill="#e2e2e2"/><path d="m200 40h144l-28.535156 328.152344c-1.960938 22.546875-20.835938 39.847656-43.464844 39.847656s-41.503906-17.300781-43.464844-39.847656zm0 0" fill="#f4c734"/><path d="m264 0c-9.304688.0117188-17.757812 5.417969-21.679688 13.855469-7.078124-10.320313-19.542968-15.546875-31.867187-13.359375-12.320313 2.183594-22.226563 11.378906-25.324219 23.503906h30.871094v48c0 8.835938 7.164062 16 16 16s16-7.164062 16-16v-24c0 8.835938 7.164062 16 16 16s16-7.164062 16-16v-24h8c0-13.253906-10.746094-24-24-24zm0 0" fill="#f9f2cc"/><path d="m336 0h-24c-13.253906 0-24 10.746094-24 24h72c0-13.253906-10.746094-24-24-24zm0 0" fill="#f9f2cc"/><path d="m16 464h128c8.835938 0 16-7.164062 16-16v-24h-160v24c0 8.835938 7.164062 16 16 16zm0 0" fill="#a3740c"/><path d="m136.230469 156.574219-.460938-1.148438c-15.703125-39.257812-23.769531-81.148437-23.769531-123.425781h-64c0 42.277344-8.066406 84.167969-23.769531 123.425781l-.460938 1.148438c-13.703125 34.265625-21.601562 70.566406-23.378906 107.425781h159.203125c-1.769531-36.855469-9.664062-73.160156-23.363281-107.425781zm0 0" fill="#a3740c"/><g fill="#f4c734"><path d="m160 264h-.390625c.261719 5.332031.390625 10.667969.390625 16zm0 0"/><path d="m0 264v16c0-5.332031.128906-10.667969.390625-16zm0 0"/><path d="m160 280c0-5.332031-.128906-10.667969-.390625-16h-159.21875c-.261719 5.332031-.390625 10.667969-.390625 16v144h160zm0 0"/></g><path d="m80 296c-26.507812 0-48 21.492188-48 48s21.492188 48 48 48 48-21.492188 48-48c-.027344-26.5-21.5-47.972656-48-48zm0 80c-17.671875 0-32-14.328125-32-32s14.328125-32 32-32 32 14.328125 32 32-14.328125 32-32 32zm0 0" fill="#f49e34"/><path d="m240 416h64c4.417969 0 8 3.582031 8 8s-3.582031 8-8 8h-64c-4.417969 0-8-3.582031-8-8s3.582031-8 8-8zm0 0" fill="#ccc"/><path d="m304.007812 135.554688 3.132813-56.351563c.242187-4.414063 4.019531-7.789063 8.429687-7.546875 4.410157.246094 7.789063 4.023438 7.542969 8.433594l-3.128906 56.351562c-.246094 4.414063-4.019531 7.789063-8.433594 7.546875-4.410156-.246093-7.789062-4.023437-7.542969-8.433593zm0 0" fill="#f9f2cc"/><path d="m312 152c4.417969 0 8 3.582031 8 8s-3.582031 8-8 8-8-3.582031-8-8 3.582031-8 8-8zm0 0" fill="#f9f2cc"/><path d="m112.28125 43.832031c-.136719-3.945312-.28125-7.878906-.28125-11.832031h-64c-.03125 12.894531-.8125 25.773438-2.335938 38.574219zm0 0" fill="#855e0a"/><path d="m80 272c-39.765625 0-72 32.234375-72 72s32.234375 72 72 72 72-32.234375 72-72c-.042969-39.746094-32.253906-71.957031-72-72zm0 120c-26.507812 0-48-21.492188-48-48s21.492188-48 48-48 48 21.492188 48 48c-.03125 26.496094-21.503906 47.96875-48 48zm0 0" fill="#f9f2cc"/><path d="m48 0h64c4.417969 0 8 3.582031 8 8v16c0 4.417969-3.582031 8-8 8h-64c-4.417969 0-8-3.582031-8-8v-16c0-4.417969 3.582031-8 8-8zm0 0" fill="#e2e2e2"/><path d="m40 24c0 4.417969 3.582031 8 8 8h64c4.417969 0 8-3.582031 8-8zm0 0" fill="#ccc"/></svg>