<svg height="480pt" viewBox="0 -1 480 480" width="480pt" xmlns="http://www.w3.org/2000/svg"><path d="m232 240c0-57.4375-46.5625-104-104-104s-104 46.5625-104 104c11.296875-.015625 22.511719-1.878906 33.207031-5.511719-16.164062 16.390625-25.21875 38.492188-25.207031 61.511719h8c6.242188-.058594 12.464844-.785156 18.550781-2.167969-12.003906 17.027344-18.480469 37.335938-18.550781 58.167969h16c13.960938-.117188 27.695312-3.53125 40.089844-9.960938.277344.425782.550781.855469.878906 1.273438l31.03125 38.785156 31.03125-38.785156c.3125-.390625.542969-.800781.800781-1.207031 12.425781 6.410156 26.1875 9.800781 40.167969 9.894531h16c-.0625-20.824219-6.527344-41.128906-18.511719-58.160156 6.074219 1.375 12.28125 2.101562 18.511719 2.160156h8c.011719-23.019531-9.042969-45.121094-25.207031-61.511719 10.695312 3.632813 21.910156 5.496094 33.207031 5.511719zm0 0" fill="#f4c734"/><path d="m472 331.382812c1.246094-37.96875-18.300781-73.597656-50.988281-92.953124-32.691407-19.351563-73.332031-19.351563-106.023438 0-32.6875 19.355468-52.234375 54.984374-50.988281 92.953124 11.3125-.015624 22.539062-1.941406 33.207031-5.695312-16.253906 17.144531-25.28125 39.890625-25.207031 63.511719h8c6.246094-.0625 12.46875-.8125 18.550781-2.238281-12.046875 17.714843-18.507812 38.636718-18.550781 60.0625h16c14-.132813 27.753906-3.664063 40.089844-10.289063.277344.441406.550781.890625.878906 1.3125l31.03125 40.050781 31.03125-40.050781c.3125-.398437.542969-.800781.800781-1.238281 12.363281 6.605468 26.148438 10.109375 40.167969 10.214844h16c-.035156-21.417969-6.484375-42.332032-18.511719-60.054688 6.070313 1.421875 12.277344 2.171875 18.511719 2.230469h8c.074219-23.621094-8.953125-46.367188-25.207031-63.511719 10.667969 3.753906 21.894531 5.679688 33.207031 5.695312zm0 0" fill="#f4c734"/><path d="m480 0h-480v16h32c48.601562 0 88 39.398438 88 88v8c0 4.417969 3.582031 8 8 8s8-3.582031 8-8v-8c-.03125-35.777344-18.46875-69.023438-48.800781-88h97.089843c2.941407 60.417969 39.203126 114.203125 94.109376 139.585938l9.601562 4.414062-16-80c23.378906 18.15625 51.363281 29.421875 80.800781 32.527344 2.398438.25 4.800781.402344 7.199219.542968v86.929688c0 4.417969 3.582031 8 8 8s8-3.582031 8-8v-86.761719c18.070312-.664062 35.890625-4.421875 52.6875-11.109375l35.3125-14.128906-3.0625-2.785156c-37.210938-33.824219-82.402344-57.640625-131.335938-69.214844h150.398438zm0 0" fill="#a3740c"/><path d="m480 0h-480v16h32c48.601562 0 88 39.398438 88 88v8c0 4.417969 3.582031 8 8 8s8-3.582031 8-8v-8c-.03125-35.777344-18.46875-69.023438-48.800781-88h97.089843c2.941407 60.417969 39.203126 114.203125 94.109376 139.585938l9.601562 4.414062-16-80c23.378906 18.15625 51.363281 29.421875 80.800781 32.527344 2.398438.25 4.800781.402344 7.199219.542968v86.929688c0 4.417969 3.582031 8 8 8s8-3.582031 8-8v-86.761719c18.070312-.664062 35.890625-4.421875 52.6875-11.109375l35.3125-14.128906-3.0625-2.785156c-37.210938-33.824219-82.402344-57.640625-131.335938-69.214844h150.398438zm0 0" fill="#a3740c"/><g fill="#e8b81c"><path d="m456 312c0-48.601562-39.398438-88-88-88s-88 39.398438-88 88c0 4.417969 3.582031 8 8 8 2.398438 0 4.679688-.167969 6.992188-.351562-5.820313 10.902343-8.859376 23.074218-8.839844 35.429687 0 4.421875 3.582031 8 8 8h5.792968c-4.988281 11.023437-7.589843 22.976563-7.632812 35.074219 0 4.417968 3.582031 8 8 8h12.304688c9.761718-.042969 19.421874-1.988282 28.4375-5.726563l20.699218 25.878907c1.515625 1.898437 3.816406 3.003906 6.246094 3.003906s4.730469-1.105469 6.246094-3.003906l20.675781-25.832032c9.03125 3.710938 18.695313 5.640625 28.460937 5.679688h12.304688c4.417969 0 8-3.582032 8-8-.042969-12.097656-2.640625-24.046875-7.617188-35.074219h5.777344c4.417969 0 8-3.578125 8-8 .019532-12.355469-3.019531-24.527344-8.839844-35.429687 2.3125.183593 4.632813.351562 6.992188.351562 4.417969 0 8-3.582031 8-8zm-16.496094-8.496094c-33.011718-3.96875-59.03125-29.988281-63-63 33.011719 3.96875 59.03125 29.988282 63 63zm-50.832031 43.152344c-.929687 1.507812-1.949219 2.960938-3.046875 4.351562l-17.625 22.03125-17.601562-22.03125c-1.097657-1.390624-2.117188-2.84375-3.046876-4.351562 4.8125-3.839844 9.136719-8.25 12.878907-13.136719l1.546875 1.9375c1.515625 1.898438 3.816406 3.003907 6.246094 3.003907 2.429687 0 4.730468-1.105469 6.25-3.003907l1.542968-1.9375c3.738282 4.882813 8.054688 9.296875 12.855469 13.136719zm-20.671875-29-17.601562-22.023438c-.238282-.304687-.46875-.648437-.703126-.960937 7.644532-7.554687 13.847657-16.441406 18.304688-26.222656 4.460938 9.78125 10.671875 18.667969 18.328125 26.222656-.230469.3125-.464844.65625-.703125.960937zm-8.496094-77.152344c-3.976562 33.007813-29.992187 59.023438-63 63 3.964844-33.011718 29.988282-59.035156 63-63zm-22.191406 64.296875c.191406.253907.375.535157.566406.800781l11.929688 14.902344c-10.574219 15.851563-28.082032 25.699219-47.121094 26.503906 1.695312-12.199218 7.148438-23.566406 15.609375-32.519531 6.707031-2.445312 13.09375-5.695312 19.015625-9.6875zm-28.511719 85.351563c1.285157-10.558594 4.972657-20.683594 10.773438-29.601563 4.898437-1.320312 9.648437-3.140625 14.179687-5.421875 1.261719 2.046875 2.644532 4.015625 4.140625 5.894532l12.59375 15.777343c-10.851562 8.425781-24.136719 13.121094-37.871093 13.382813zm59.199219 18.34375-12.535156-15.695313c1.703125-1.113281 3.382812-2.28125 5.03125-3.527343l1.257812 1.597656c1.515625 1.898437 3.816406 3.003906 6.246094 3.003906s4.730469-1.105469 6.246094-3.003906l1.226562-1.527344c1.648438 1.257812 3.328125 2.398438 5.039063 3.550781zm55.382812-18.34375c-13.746093-.226563-27.050781-4.910156-37.902343-13.351563l12.640625-15.808593c1.496094-1.878907 2.878906-3.851563 4.144531-5.894532 4.539063 2.285156 9.296875 4.105469 14.207031 5.429688 5.789063 8.917968 9.464844 19.042968 10.742188 29.601562zm9.929688-43.121094c-19.039062-.804688-36.546875-10.652344-47.121094-26.503906l11.929688-14.925782c.191406-.25.375-.53125.566406-.800781 5.921875 3.984375 12.308594 7.234375 19.015625 9.671875 8.46875 8.960938 13.921875 20.34375 15.609375 32.558594zm0 0"/><path d="m216 224c0-48.601562-39.398438-88-88-88s-88 39.398438-88 88c0 4.417969 3.582031 8 8 8 2.359375 0 4.679688-.167969 6.992188-.351562-5.820313 10.902343-8.859376 23.074218-8.839844 35.429687 0 4.421875 3.582031 8 8 8h5.792968c-4.988281 11.023437-7.589843 22.976563-7.632812 35.074219 0 4.417968 3.582031 8 8 8h12.304688c9.761718-.042969 19.421874-1.988282 28.4375-5.726563l20.699218 25.878907c1.515625 1.898437 3.816406 3.003906 6.246094 3.003906s4.730469-1.105469 6.246094-3.003906l20.675781-25.832032c9.03125 3.710938 18.695313 5.640625 28.460937 5.679688h12.304688c4.417969 0 8-3.582032 8-8-.042969-12.097656-2.640625-24.046875-7.617188-35.074219h5.777344c4.417969 0 8-3.578125 8-8 .019532-12.355469-3.019531-24.527344-8.839844-35.429687 2.3125.183593 4.632813.351562 6.992188.351562 4.417969 0 8-3.582031 8-8zm-16.496094-8.496094c-33.011718-3.96875-59.03125-29.988281-63-63 33.011719 3.96875 59.03125 29.988282 63 63zm-50.832031 43.152344c-.929687 1.507812-1.949219 2.960938-3.046875 4.351562l-17.625 22.03125-17.601562-22.03125c-1.097657-1.390624-2.117188-2.84375-3.046876-4.351562 4.8125-3.839844 9.136719-8.25 12.878907-13.136719l1.546875 1.9375c1.515625 1.898438 3.816406 3.003907 6.246094 3.003907 2.429687 0 4.730468-1.105469 6.25-3.003907l1.542968-1.9375c3.738282 4.882813 8.054688 9.296875 12.855469 13.136719zm-20.671875-29-17.601562-22.023438c-.238282-.304687-.46875-.648437-.703126-.960937 7.644532-7.554687 13.847657-16.441406 18.304688-26.222656 4.460938 9.78125 10.671875 18.667969 18.328125 26.222656-.230469.3125-.464844.65625-.703125.960937zm-8.496094-77.152344c-3.976562 33.007813-29.992187 59.023438-63 63 3.964844-33.011718 29.988282-59.035156 63-63zm-22.191406 64.335938c.191406.257812.375.535156.566406.800781l11.929688 14.902344c-10.574219 15.851562-28.082032 25.699219-47.121094 26.503906 1.695312-12.199219 7.148438-23.566406 15.609375-32.519531 6.707031-2.441406 13.09375-5.695313 19.015625-9.6875zm-28.511719 85.3125c1.285157-10.558594 4.972657-20.683594 10.773438-29.601563 4.898437-1.320312 9.648437-3.140625 14.179687-5.421875 1.261719 2.046875 2.644532 4.015625 4.140625 5.894532l12.59375 15.777343c-10.851562 8.425781-24.136719 13.121094-37.871093 13.382813zm59.199219 18.34375-12.535156-15.695313c1.703125-1.113281 3.382812-2.28125 5.03125-3.527343l1.257812 1.597656c1.515625 1.898437 3.816406 3.003906 6.246094 3.003906s4.730469-1.105469 6.246094-3.003906l1.226562-1.527344c1.648438 1.257812 3.328125 2.398438 5.039063 3.550781zm55.382812-18.34375c-13.746093-.226563-27.050781-4.910156-37.902343-13.351563l12.640625-15.808593c1.496094-1.878907 2.878906-3.851563 4.144531-5.894532 4.539063 2.285156 9.296875 4.105469 14.207031 5.429688 5.789063 8.917968 9.464844 19.042968 10.742188 29.601562zm9.929688-43.121094c-19.039062-.804688-36.546875-10.652344-47.121094-26.503906l11.929688-14.925782c.191406-.25.375-.53125.566406-.800781 5.921875 3.984375 12.308594 7.234375 19.015625 9.671875 8.46875 8.960938 13.921875 20.34375 15.609375 32.558594zm0 0"/></g></svg>