<svg height="464pt" viewBox="-16 0 464 464" width="464pt" xmlns="http://www.w3.org/2000/svg"><path d="m119.199219 265.847656-6.632813-60.390625c-2.550781 1.648438-5.527344 2.53125-8.566406 2.542969h-48c-3.050781-.003906-6.039062-.886719-8.601562-2.542969l-6.597657 60.390625c-5.824219 46.585938-5.824219 93.71875 0 140.304688l6.398438 50.839844c.5 4.003906 3.902343 7.007812 7.9375 7.007812h49.871093c4.035157 0 7.4375-3.003906 7.9375-7.007812l6.359376-50.839844c5.789062-46.589844 5.753906-93.722656-.105469-140.304688zm0 0" fill="#f4c734"/><path d="m130.246094 0h-17.238282c-5.875 0-11.617187 1.738281-16.503906 5-9.996094 6.65625-23.011718 6.65625-33.007812 0-4.886719-3.261719-10.628906-5-16.503906-5h-17.238282c-16.433594 0-29.753906 13.320312-29.753906 29.753906v66.246094c0 17.671875 14.328125 32 32 32h32v48h-8c-8.835938 0-16 7.164062-16 16s7.164062 16 16 16h48c8.835938 0 16-7.164062 16-16s-7.164062-16-16-16h-8v-48h32c17.671875 0 32-14.328125 32-32v-66.246094c0-16.433594-13.320312-29.753906-29.753906-29.753906zm5.753906 72c0 17.671875-14.328125 32-32 32v-8c0-4.417969-3.582031-8-8-8h-32c-4.417969 0-8 3.582031-8 8v8c-17.671875 0-32-14.328125-32-32v-40l34.023438 9.71875c14.363281 4.105469 29.589843 4.105469 43.953124 0l34.023438-9.71875zm0 0" fill="#e2e2e2"/><path d="m197.28125 220.921875c-3.34375 2.707031-5.28125 6.777344-5.28125 11.078125s1.9375 8.371094 5.28125 11.078125l10.191406 8.257813c4.800782 3.890624 6.550782 10.429687 4.335938 16.199218l-4.6875 12.21875c-1.542969 4.015625-1.1875 8.519532.964844 12.246094 2.15625 3.726562 5.878906 6.28125 10.128906 6.953125l12.921875 2.03125c6.109375.964844 10.902343 5.761719 11.863281 11.871094l2.039062 12.921875c.667969 4.253906 3.222657 7.976562 6.953126 10.132812 3.726562 2.152344 8.230468 2.507813 12.246093.960938l12.226563-4.6875c5.765625-2.214844 12.304687-.464844 16.191406 4.335937l8.265625 10.191407c2.707031 3.339843 6.777344 5.28125 11.078125 5.28125s8.371094-1.941407 11.078125-5.28125l8.257813-10.191407c3.890624-4.800781 10.429687-6.550781 16.199218-4.335937l12.21875 4.6875c4.015625 1.542968 8.519532 1.1875 12.246094-.964844 3.726562-2.15625 6.28125-5.878906 6.953125-10.128906l2.03125-12.921875c.964844-6.109375 5.761719-10.902344 11.871094-11.863281l12.921875-2.039063c4.253906-.667969 7.976562-3.222656 10.132812-6.953125 2.152344-3.726562 2.507813-8.230469.960938-12.246094l-4.6875-12.226562c-2.214844-5.765625-.464844-12.304688 4.335937-16.191406l10.191407-8.265626c3.339843-2.707031 5.28125-6.777343 5.28125-11.078124 0-4.300782-1.941407-8.371094-5.28125-11.082032l-10.191407-8.261718c-4.800781-3.886719-6.550781-10.425782-4.335937-16.191407l4.6875-12.21875c1.542968-4.015625 1.1875-8.519531-.964844-12.246093-2.15625-3.726563-5.878906-6.28125-10.128906-6.953126l-12.921875-2.03125c-6.109375-.964843-10.902344-5.761718-11.863281-11.871093l-2.039063-12.921875c-.667969-4.253906-3.222656-7.976563-6.953125-10.132813-3.726562-2.152343-8.230469-2.507812-12.246094-.960937l-12.226562 4.6875c-5.765625 2.214844-12.304688.464844-16.191406-4.335938l-8.257813-10.191406c-2.707031-3.34375-6.777344-5.28125-11.078125-5.28125s-8.371094 1.9375-11.078125 5.28125l-8.257813 10.191406c-3.890624 4.800782-10.429687 6.550782-16.199218 4.335938l-12.21875-4.6875c-4.015625-1.542969-8.519532-1.1875-12.246094.964844-3.726562 2.15625-6.28125 5.878906-6.953125 10.128906l-2.03125 12.914062c-.960937 6.113282-5.757813 10.910156-11.871094 11.871094l-12.921875 2.039062c-4.253906.667969-7.976562 3.222657-10.132812 6.953126-2.152344 3.726562-2.507813 8.230468-.960938 12.246093l4.6875 12.226563c2.214844 5.765625.464844 12.304687-4.335937 16.191406zm0 0" fill="#a3740c"/><path d="m312 320c48.601562 0 88-39.398438 88-88s-39.398438-88-88-88-88 39.398438-88 88c.058594 48.578125 39.421875 87.941406 88 88zm0-160c39.765625 0 72 32.234375 72 72s-32.234375 72-72 72-72-32.234375-72-72c.042969-39.746094 32.253906-71.957031 72-72zm0 0" fill="#855e0a"/><path d="m320 232v-47.367188c.023438-2.328124-.96875-4.546874-2.714844-6.082031-1.75-1.539062-4.078125-2.238281-6.382812-1.917969-28.101563 4.078126-50.175782 26.152344-54.253906 54.253907-.320313 2.304687.378906 4.632812 1.917968 6.382812 1.535156 1.746094 3.753906 2.738281 6.082032 2.714844h47.351562c.007812-4.414063 3.589844-7.984375 8-7.984375zm0 0" fill="#855e0a"/><g fill="#f4c734"><path d="m192 48c4.417969 0 8 3.582031 8 8s-3.582031 8-8 8-8-3.582031-8-8 3.582031-8 8-8zm0 0"/><path d="m224 48c4.417969 0 8 3.582031 8 8s-3.582031 8-8 8-8-3.582031-8-8 3.582031-8 8-8zm0 0"/><path d="m256 48c4.417969 0 8 3.582031 8 8s-3.582031 8-8 8-8-3.582031-8-8 3.582031-8 8-8zm0 0"/><path d="m288 48c4.417969 0 8 3.582031 8 8s-3.582031 8-8 8-8-3.582031-8-8 3.582031-8 8-8zm0 0"/><path d="m288 80c4.417969 0 8 3.582031 8 8s-3.582031 8-8 8-8-3.582031-8-8 3.582031-8 8-8zm0 0"/><path d="m288 368c4.417969 0 8 3.582031 8 8s-3.582031 8-8 8-8-3.582031-8-8 3.582031-8 8-8zm0 0"/><path d="m288 400c4.417969 0 8 3.582031 8 8s-3.582031 8-8 8-8-3.582031-8-8 3.582031-8 8-8zm0 0"/><path d="m256 400c4.417969 0 8 3.582031 8 8s-3.582031 8-8 8-8-3.582031-8-8 3.582031-8 8-8zm0 0"/><path d="m224 400c4.417969 0 8 3.582031 8 8s-3.582031 8-8 8-8-3.582031-8-8 3.582031-8 8-8zm0 0"/><path d="m192 400c4.417969 0 8 3.582031 8 8s-3.582031 8-8 8-8-3.582031-8-8 3.582031-8 8-8zm0 0"/><path d="m160 400c4.417969 0 8 3.582031 8 8s-3.582031 8-8 8-8-3.582031-8-8 3.582031-8 8-8zm0 0"/></g><path d="m64 128h32v8h-32zm0 0" fill="#ccc"/><path d="m49.3125 16h61.375c3.707031-.03125 6.949219 2.492188 7.835938 6.09375.882812 3.597656-.824219 7.335938-4.125 9.027344-10.601563 5.636718-22.390626 8.679687-34.398438 8.878906-12.007812-.199219-23.796875-3.242188-34.398438-8.878906-3.300781-1.691406-5.007812-5.429688-4.125-9.027344.886719-3.601562 4.128907-6.125 7.835938-6.09375zm0 0" fill="#ccc"/><path d="m64 168h32v8h-32zm0 0" fill="#ccc"/><path d="m112.601562 205.457031c-2.5625 1.65625-5.550781 2.539063-8.601562 2.542969h-48c-3.050781-.003906-6.039062-.886719-8.601562-2.542969l-.796876 7.421875c2.71875 2.015625 6.011719 3.109375 9.398438 3.121094h48c3.390625-.007812 6.691406-1.101562 9.414062-3.121094zm0 0" fill="#e0b730"/></svg>