<svg height="464pt" viewBox="0 0 464 464" width="464pt" xmlns="http://www.w3.org/2000/svg"><path d="m296 336v-167.753906c0-21.132813-5.515625-41.898438-16-60.246094s-16-39.113281-16-60.246094v-15.753906c8.835938 0 16-7.164062 16-16s-7.164062-16-16-16h-64c-8.835938 0-16 7.164062-16 16s7.164062 16 16 16v15.753906c0 21.132813-5.515625 41.898438-16 60.246094s-16 39.113281-16 60.246094v167.753906zm0 0" fill="#a3740c"/><path d="m200 32h64v16h-64zm0 0" fill="#855e0a"/><path d="m279.335938 208c0 26.144531-21.191407 47.335938-47.335938 47.335938s-47.335938-21.191407-47.335938-47.335938 21.191407-47.335938 47.335938-47.335938 47.335938 21.191407 47.335938 47.335938zm0 0" fill="#f4c734"/><path d="m40 336c-22.089844 0-40 17.910156-40 40v48c0 22.089844 17.910156 40 40 40h352c15.890625-.015625 30.265625-9.433594 36.625-24h19.375c8.835938 0 16-7.164062 16-16v-48c0-8.835938-7.164062-16-16-16h-19.375c-6.359375-14.566406-20.734375-23.984375-36.625-24zm0 0" fill="#a3740c"/><g fill="#f4c734"><path d="m330.089844 39.503906-.800782-.382812c-1.914062-.941406-4.128906-1.0625-6.132812-.34375-2.007812.722656-3.632812 2.230468-4.507812 4.175781l-.074219.144531c-1.730469 3.910156-.078125 8.492188 3.753906 10.398438l.199219.097656c3.808594 1.984375 8.507812.605469 10.640625-3.121094l.070312-.144531c1.046875-1.847656 1.300781-4.039063.707031-6.078125-.59375-2.035156-1.984374-3.75-3.855468-4.746094zm0 0"/><path d="m359.039062 57.304688-.6875-.503907c-1.742187-1.230469-3.910156-1.699219-6.003906-1.304687-2.097656.398437-3.941406 1.628906-5.117187 3.40625l-.085938.128906c-2.355469 3.597656-1.445312 8.414062 2.0625 10.90625l.183594.125c3.453125 2.554688 8.300781 1.929688 10.992187-1.414062l.097657-.128907c1.328125-1.664062 1.925781-3.796875 1.65625-5.914062-.273438-2.113281-1.390625-4.027344-3.097657-5.300781zm0 0"/><path d="m432 175.558594h.144531c2.066407-.558594 3.816407-1.9375 4.847657-3.816406 1.027343-1.878907 1.25-4.097657.609374-6.140626l-.265624-.800781c-.691407-2.015625-2.171876-3.660156-4.101563-4.566406-1.925781-.902344-4.140625-.988281-6.128906-.234375h-.144531c-4.019532 1.527344-6.109376 5.957031-4.738282 10.03125l.066406.199219c1.285157 4.09375 5.570313 6.445312 9.710938 5.328125zm0 0"/><path d="m404.6875 116.433594.136719-.089844c1.777343-1.175781 3-3.023438 3.390625-5.121094.390625-2.09375-.085938-4.261718-1.320313-6l-.496093-.6875c-1.28125-1.695312-3.191407-2.800781-5.300782-3.066406s-4.234375.332031-5.898437 1.660156l-.128907.09375c-3.339843 2.699219-3.953124 7.554688-1.390624 11l.136718.175782c2.496094 3.476562 7.289063 4.375 10.871094 2.035156zm0 0"/><path d="m420.695312 144.910156.144532-.0625c1.941406-.882812 3.4375-2.515625 4.152344-4.523437.714843-2.007813.585937-4.222657-.359376-6.132813l-.386718-.75c-.992188-1.886718-2.710938-3.285156-4.757813-3.878906-2.046875-.597656-4.246093-.335938-6.097656.71875l-.144531.070312c-3.722656 2.140626-5.09375 6.839844-3.101563 10.648438l.101563.199219c1.921875 3.84375 6.535156 5.480469 10.449218 3.710937zm0 0"/><path d="m384.855469 79.382812-.609375-.605468c-1.53125-1.484375-3.597656-2.285156-5.730469-2.214844-2.132813.066406-4.144531.996094-5.578125 2.574219l-.105469.109375c-2.878906 3.1875-2.726562 8.078125.34375 11.082031l.152344.160156c3.011719 3.066407 7.90625 3.203125 11.085937.3125l.113282-.105469c1.574218-1.4375 2.496094-3.453124 2.558594-5.585937s-.742188-4.199219-2.230469-5.726563zm0 0"/><path d="m438.351562 207.609375h.152344c2.121094-.230469 4.058594-1.3125 5.367188-2.996094 1.308594-1.6875 1.878906-3.828125 1.578125-5.941406l-.136719-.839844c-.355469-2.105469-1.550781-3.976562-3.3125-5.183593-1.761719-1.207032-3.941406-1.644532-6.03125-1.214844h-.160156c-4.199219.878906-6.957032 4.917968-6.25 9.152344v.199218c.609375 4.273438 4.5 7.292969 8.792968 6.824219zm0 0"/><path d="m145.359375 43.113281-.070313-.144531c-.878906-1.941406-2.507812-3.445312-4.511718-4.167969-2.003906-.722656-4.214844-.601562-6.128906.335938l-.761719.382812c-1.890625.992188-3.296875 2.707031-3.902344 4.753907-.601563 2.046874-.347656 4.253906.703125 6.109374l.082031.136719c2.132813 3.722657 6.824219 5.101563 10.628907 3.121094l.195312-.097656c3.851562-1.898438 5.515625-6.507813 3.765625-10.429688zm0 0"/><path d="m28.160156 191.527344h-.152344c-2.089843-.421875-4.261718.015625-6.023437 1.222656-1.757813 1.207031-2.953125 3.074219-3.3125 5.179688l-.128906.847656c-.296875 2.109375.273437 4.25 1.578125 5.929687 1.308594 1.683594 3.242187 2.765625 5.359375 2.996094h.160156c4.273437.453125 8.144531-2.554687 8.757813-6.808594v-.214843c.710937-4.230469-2.042969-8.265626-6.238282-9.152344zm0 0"/><path d="m50.734375 130.398438-.132813-.078126c-1.855468-1.054687-4.054687-1.316406-6.101562-.71875-2.046875.59375-3.765625 1.996094-4.765625 3.878907l-.390625.800781c-.941406 1.910156-1.070312 4.125-.351562 6.132812.71875 2.007813 2.21875 3.640626 4.160156 4.523438l.136718.0625c3.914063 1.765625 8.527344.125 10.445313-3.71875l.097656-.203125c2.015625-3.8125.644531-8.535156-3.097656-10.679687zm0 0"/><path d="m37.023438 160.054688-.144532-.054688c-1.996094-.746094-4.210937-.65625-6.136718.257812-1.929688.910157-3.40625 2.5625-4.09375 4.582032l-.265626.800781c-.628906 2.035156-.40625 4.242187.617188 6.113281 1.027344 1.867188 2.765625 3.242188 4.824219 3.804688l.175781.058594c4.144531 1.117187 8.433594-1.234376 9.71875-5.328126l.074219-.210937c1.363281-4.078125-.742188-8.507813-4.769531-10.023437zm0 0"/><path d="m116.800781 59.046875-.089843-.136719c-1.171876-1.777344-3.015626-3.003906-5.109376-3.402344-2.09375-.398437-4.257812.070313-6 1.292969l-.691406.503907c-1.699218 1.277343-2.8125 3.1875-3.082031 5.296874-.269531 2.109376.320313 4.238282 1.644531 5.902344l.101563.121094c2.691406 3.347656 7.542969 3.972656 10.992187 1.421875l.1875-.125c3.480469-2.492187 4.382813-7.285156 2.046875-10.875zm0 0"/><path d="m68.945312 103.199219-.128906-.09375c-1.664062-1.324219-3.789062-1.921875-5.898437-1.65625s-4.019531 1.375-5.300781 3.070312l-.503907.6875c-1.230469 1.742188-1.703125 3.90625-1.3125 6.003907.394531 2.09375 1.621094 3.941406 3.398438 5.117187l.128906.085937c3.589844 2.359376 8.398437 1.460938 10.894531-2.03125l.136719-.183593c2.558594-3.449219 1.933594-8.308594-1.414063-11zm0 0"/><path d="m91.152344 79.257812-.105469-.113281c-1.433594-1.578125-3.449219-2.503906-5.582031-2.570312-2.128906-.066407-4.199219.734375-5.730469 2.21875l-.597656.597656c-1.492188 1.527344-2.300781 3.59375-2.238281 5.726563.058593 2.132812.984374 4.148437 2.558593 5.585937l.109375.105469c3.179688 2.890625 8.078125 2.753906 11.089844-.3125l.152344-.152344c3.074218-3.003906 3.226562-7.898438.34375-11.085938zm0 0"/></g><path d="m170.398438 376.238281v-.238281l12.355468-116.753906c.789063-7.105469-1.695312-14.1875-6.753906-19.246094h-40v136h-80c-13.253906 0-24 10.746094-24 24s10.746094 24 24 24h112c12.785156.046875 23.351562-9.964844 23.996094-22.734375.640625-12.769531-8.867188-23.789063-21.597656-25.027344zm0 0" fill="#855e0a"/><path d="m48 240 15.28125 152.800781c.410156 4.085938 3.851562 7.199219 7.957031 7.199219h81.5625c4.121094.019531 7.585938-3.097656 8-7.199219l15.199219-152.800781zm0 0" fill="#e2e2e2"/><path d="m144.457031 392h-64.914062c-4.238281.007812-7.75-3.296875-8-7.527344l-7.542969-144.472656h96l-7.558594 144.472656c-.25 4.226563-3.75 7.527344-7.984375 7.527344zm0 0" fill="#f4c734"/><path d="m136 208c-17.671875 0-32 14.328125-32 32 0-13.253906-10.746094-24-24-24s-24 10.746094-24 24h24c4.417969 0 8 3.582031 8 8v44c0 6.628906 5.371094 12 12 12h8c6.628906 0 12-5.371094 12-12v-7.535156c-.207031-6.664063 5.015625-12.238282 11.679688-12.464844 3.238281.085938 6.375-1.140625 8.691406-3.398438 2.320312-2.261718 3.628906-5.363281 3.628906-8.601562v-12c0-4.417969 3.582031-8 8-8h16c0-17.671875-14.328125-32-32-32zm0 0" fill="#f9f2cc"/><path d="m145 281c4.417969 0 8 3.582031 8 8s-3.582031 8-8 8-8-3.582031-8-8 3.582031-8 8-8zm0 0" fill="#f9f2cc"/><path d="m122 308c4.417969 0 8 3.582031 8 8s-3.582031 8-8 8-8-3.582031-8-8 3.582031-8 8-8zm0 0" fill="#f9f2cc"/><path d="m360 376h-82l2-136h-40c-4.085938 5.46875-5.976562 12.269531-5.296875 19.0625l6.898437 68.9375.796876 8h-58.644532c10.410156 7.320312 22.828125 11.25 35.558594 11.246094h24.214844l2.871094 28.914062c-6.367188.402344-12.3125 3.335938-16.507813 8.140625-4.199219 4.808594-6.300781 11.09375-5.84375 17.460938 1.359375 12.835937 12.320313 22.496093 25.226563 22.238281h109.367187c13.113281.285156 24.203125-9.644531 25.359375-22.710938.355469-6.585937-2.015625-13.027343-6.558594-17.808593-4.539062-4.785157-10.847656-7.488281-17.441406-7.480469zm0 0" fill="#855e0a"/><path d="m240 240 15.28125 152.800781c.410156 4.101563 3.875 7.21875 8 7.199219h81.519531c4.121094.019531 7.585938-3.097656 8-7.199219l15.199219-152.800781zm0 0" fill="#e2e2e2"/><path d="m336.457031 392h-64.914062c-4.238281.007812-7.75-3.296875-8-7.527344l-7.542969-144.472656h96l-7.558594 144.472656c-.25 4.226563-3.75 7.527344-7.984375 7.527344zm0 0" fill="#f4c734"/><path d="m339.496094 273c4.417968 0 8 3.582031 8 8s-3.582032 8-8 8c-4.417969 0-8-3.582031-8-8s3.582031-8 8-8zm0 0" fill="#f9f2cc"/><path d="m325 300c4.417969 0 8 3.582031 8 8s-3.582031 8-8 8-8-3.582031-8-8 3.582031-8 8-8zm0 0" fill="#f9f2cc"/><path d="m328 208c-17.671875 0-32 14.328125-32 32 0-13.253906-10.746094-24-24-24s-24 10.746094-24 24h24c4.417969 0 8 3.582031 8 8v44c0 6.628906 5.371094 12 12 12h8c6.628906 0 12-5.371094 12-12v-7.535156c-.207031-6.664063 5.015625-12.238282 11.679688-12.464844 3.238281.085938 6.375-1.140625 8.691406-3.398438 2.320312-2.261718 3.628906-5.363281 3.628906-8.601562v-12c0-4.417969 3.582031-8 8-8h16c0-17.671875-14.328125-32-32-32zm0 0" fill="#f9f2cc"/></svg>