<svg height="480pt" viewBox="0 0 480 480" width="480pt" xmlns="http://www.w3.org/2000/svg"><path d="m152 296v176l88-64 88 64v-176zm0 0" fill="#f4c734"/><path d="m152 296v20.175781c12.847656 11.542969 14.742188 45.542969 31.128906 50.863281 16.382813 5.320313 38.742188-23.039062 56.871094-23.039062s40.519531 28.34375 56.871094 23.039062c16.351562-5.304687 18.28125-39.328124 31.128906-50.863281v-20.175781zm0 0" fill="#e0b730"/><path d="m56 184c0-18.128906 34.089844-30.640625 39.398438-46.992188 5.503906-16.945312-14.527344-47.070312-4.261719-61.175781 10.398437-14.246093 45.277343-4.457031 59.527343-14.824219 14.105469-10.265624 15.519532-46.542968 32.464844-52.046874 16.351563-5.3125 38.75 23.039062 56.871094 23.039062s40.519531-28.34375 56.871094-23.039062c16.953125 5.503906 18.402344 41.78125 32.464844 52.054687 14.25 10.398437 49.160156.570313 59.527343 14.816406 10.265625 14.105469-9.765625 44.230469-4.261719 61.175781 5.308594 16.359376 39.398438 28.871094 39.398438 46.992188s-34.089844 30.640625-39.398438 46.992188c-5.503906 16.945312 14.527344 47.070312 4.261719 61.175781-10.398437 14.246093-45.277343 4.457031-59.527343 14.824219-14.105469 10.265624-15.519532 46.542968-32.464844 52.046874-16.351563 5.3125-38.75-23.039062-56.871094-23.039062s-40.519531 28.34375-56.871094 23.039062c-16.953125-5.503906-18.359375-41.78125-32.464844-52.054687-14.25-10.398437-49.160156-.570313-59.527343-14.816406-10.265625-14.105469 9.765625-44.230469 4.261719-61.175781-5.308594-16.359376-39.398438-28.871094-39.398438-46.992188zm0 0" fill="#f4c734"/><path d="m88 184c0 83.949219 68.050781 152 152 152s152-68.050781 152-152-68.050781-152-152-152-152 68.050781-152 152zm0 0" fill="#a3740c"/><g fill="#f4c734"><path d="m464 0h-16v16h-16v16h16v16h16v-16h16v-16h-16zm0 0"/><path d="m464 96h16v16h-16zm0 0"/><path d="m384 32h16v16h-16zm0 0"/><path d="m408 136h16c0-13.253906 10.746094-24 24-24v-16c-22.082031.027344-39.972656 17.917969-40 40zm0 0"/><path d="m16 48h16v-16h16v-16h-16v-16h-16v16h-16v16h16zm0 0"/><path d="m0 336h16v16h-16zm0 0"/><path d="m56 312c0 13.253906-10.746094 24-24 24v16c22.082031-.027344 39.972656-17.917969 40-40zm0 0"/><path d="m424 432h-16v16h-16v16h16v16h16v-16h16v-16h-16zm0 0"/><path d="m424 368h16v16h-16zm0 0"/><path d="m408 368c-13.253906 0-24-10.746094-24-24h-16c.027344 22.082031 17.917969 39.972656 40 40zm0 0"/><path d="m96 376h-16v16h-16v16h16v16h16v-16h16v-16h-16zm0 0"/><path d="m0 96h16v16h-16zm0 0"/><path d="m32 112c13.253906 0 24 10.746094 24 24h16c-.027344-22.082031-17.917969-39.972656-40-40zm0 0"/><path d="m16 176h16v16h-16zm0 0"/><path d="m416 288h16v16h-16zm0 0"/></g><path d="m160 104v145.367188c-11.027344 3.890624-17.644531 15.164062-15.667969 26.691406 1.976563 11.523437 11.972657 19.949218 23.667969 19.941406h136c11.695312.007812 21.691406-8.417969 23.667969-19.941406 1.976562-11.527344-4.640625-22.800782-15.667969-26.691406v-10.007813c27.527344-3.972656 47.96875-27.546875 48-55.359375v-16c-.03125-27.8125-20.472656-51.386719-48-55.359375v-8.640625zm184 80c-.019531 19-13.386719 35.375-32 39.199219v-94.398438c18.613281 3.824219 31.980469 20.199219 32 39.199219zm0 0" fill="#e2e2e2"/><path d="m168 104h136v136c0 8.835938-7.164062 16-16 16h-104c-8.835938 0-16-7.164062-16-16zm0 0" fill="#f4c734"/><path d="m192 144c4.417969 0 8 3.582031 8 8v48c0 4.417969-3.582031 8-8 8s-8-3.582031-8-8v-48c0-4.417969 3.582031-8 8-8zm0 0" fill="#e0b730"/><path d="m272 200c4.417969 0 8 3.582031 8 8v24c0 4.417969-3.582031 8-8 8s-8-3.582031-8-8v-24c0-4.417969 3.582031-8 8-8zm0 0" fill="#e0b730"/><path d="m208 151.144531c-.179688 8.039063 5.429688 15.046875 13.3125 16.640625 4.648438.792969 9.410156-.507812 13.011719-3.550781 3.601562-3.042969 5.679687-7.519531 5.675781-12.234375v23.144531c-.179688 8.039063 5.429688 15.046875 13.3125 16.640625 4.648438.792969 9.410156-.507812 13.011719-3.550781 3.601562-3.042969 5.679687-7.519531 5.675781-12.234375v-72h8v-2.496094c.300781-18.515625-13.117188-34.410156-31.425781-37.214844-12.066407-1.542968-24.09375 3.171876-31.894531 12.511719-9.84375-6.125-22.242188-6.414062-32.363282-.757812-10.121094 5.652343-16.371094 16.363281-16.316406 27.957031h32c4.417969 0 8 3.582031 8 8zm0 0" fill="#f9f2cc"/><path d="m312 272h-152c-2.210938 0-4-1.789062-4-4s1.789062-4 4-4h152c2.210938 0 4 1.789062 4 4s-1.789062 4-4 4zm0 0" fill="#ccc"/></svg>