<svg height="480pt" viewBox="0 0 480 480.00692" width="480pt" xmlns="http://www.w3.org/2000/svg"><path d="m472.003906 112.007812h-79.527344c11.125-5.175781 21.640626-11.570312 31.359376-19.066406l14.566406-11.335937c15.382812-11.957031 21.46875-32.367188 15.144531-50.796875-6.324219-18.429688-23.660156-30.80468775-43.144531-30.8007815-27.824219.0273437-50.371094 22.5742185-50.398438 50.3984375v5.601562h16v-5.601562c0-18.996094 15.402344-34.398438 34.398438-34.398438 12.652344-.007812 23.910156 8.027344 28.015625 19.992188 4.105469 11.96875.152343 25.222656-9.839844 32.984375l-14.574219 11.335937c-26.445312 20.492188-58.941406 31.636719-92.402344 31.6875-39.925781.113282-78.242187-15.753906-106.398437-44.066406l-44-44.054687c-20.386719-20.398438-50.039063-28.503907-77.96875-21.3125-27.925781 7.195312-49.972656 28.617187-57.96875 56.328125-7.363281-6.976563-17.117187-10.875-27.261719-10.894532-4.417968 0-7.99999975 3.582032-7.99999975 8v144c0 4.417969 3.58203175 8 7.99999975 8 22.078125-.027343 39.972656-17.921874 40-40v-8h56v32h-32c-4.417968 0-8 3.582032-8 8v272c0 4.417969 3.582032 8 8 8h384c4.417969 0 8-3.582031 8-8v-272c0-4.417968-3.582031-8-8-8h-24v-32h40c4.417969 0 8-3.582031 8-8v-32c0-4.417968-3.582031-8-8-8zm-424-24v-6.464843c.007813-26.503907 15.976563-50.394531 40.464844-60.535157 24.484375-10.140624 52.667969-4.539062 71.414062 14.199219l44.058594 44.054688c13.578125 13.53125 29.394532 24.609375 46.75 32.746093h-202.6875zm0 0" fill="#a3740c"/><path d="m88.003906 208.007812h352c4.417969 0 8 3.582032 8 8v240c0 4.417969-3.582031 8-8 8h-352c-4.417968 0-8-3.582031-8-8v-240c0-4.417968 3.582032-8 8-8zm0 0" fill="#855e0a"/><path d="m176.003906 256.007812v145.367188c-11.027344 3.890625-17.644531 15.164062-15.667968 26.691406 1.976562 11.523438 11.972656 19.945313 23.667968 19.941406h136c11.695313.003907 21.691406-8.417968 23.667969-19.941406 1.976563-11.527344-4.640625-22.800781-15.667969-26.691406v-10.007812c27.527344-3.972657 47.96875-27.546876 48-55.359376v-16c-.03125-27.8125-20.472656-51.386718-48-55.359374v-8.640626zm184 80c-.019531 19-13.386718 35.375-32 39.199219v-94.398437c18.613282 3.824218 31.980469 20.195312 32 39.199218zm0 0" fill="#e2e2e2"/><path d="m184.003906 256.007812h136v136c0 8.835938-7.164062 16-16 16h-104c-8.835937 0-16-7.164062-16-16zm0 0" fill="#f4c734"/><path d="m208.003906 296.007812c4.417969 0 8 3.582032 8 8v48c0 4.417969-3.582031 8-8 8-4.417968 0-8-3.582031-8-8v-48c0-4.417968 3.582032-8 8-8zm0 0" fill="#e0b730"/><path d="m288.003906 352.007812c4.417969 0 8 3.582032 8 8v24c0 4.417969-3.582031 8-8 8-4.417968 0-8-3.582031-8-8v-24c0-4.417968 3.582032-8 8-8zm0 0" fill="#e0b730"/><path d="m224.003906 303.152344c-.179687 8.039062 5.429688 15.046875 13.3125 16.636718 4.648438.792969 9.410156-.503906 13.011719-3.546874 3.601563-3.042969 5.679687-7.519532 5.675781-12.234376v23.144532c-.179687 8.039062 5.429688 15.046875 13.3125 16.636718 4.648438.792969 9.410156-.503906 13.011719-3.546874 3.601563-3.042969 5.679687-7.519532 5.675781-12.234376v-72h8v-2.496093c.300782-18.515625-13.117187-34.410157-31.425781-37.214844-12.070313-1.542969-24.09375 3.171875-31.894531 12.511719-9.847656-6.125-22.242188-6.414063-32.363282-.761719-10.121093 5.65625-16.371093 16.367187-16.316406 27.960937h32c4.417969 0 8 3.582032 8 8zm0 0" fill="#f9f2cc"/><path d="m328.003906 424.007812h-152c-2.210937 0-4-1.792968-4-4 0-2.210937 1.789063-4 4-4h152c2.207032 0 4 1.789063 4 4 0 2.207032-1.792968 4-4 4zm0 0" fill="#ccc"/></svg>