<svg height="448pt" viewBox="-4 0 448 448" width="448pt" xmlns="http://www.w3.org/2000/svg"><path d="m264.007812 432v-176h-64c-4.417968 0-8-3.582031-8-8v-40h-80v40c0 4.417969-3.582031 8-8 8h-64v176zm0 0" fill="#f7ddad"/><path d="m112.007812 229.65625c24.894532 13.746094 55.101563 13.746094 80 0v-45.65625h-80zm0 0" fill="#ebd2a4"/><path d="m30.40625 208.167969c-11.179688.761719-20.347656 9.160156-22.082031 20.230469-1.730469 11.074218 4.425781 21.871093 14.839843 26.015624 10.414063 4.140626 22.308594.527344 28.65625-8.710937 6.34375-9.238281 5.453126-21.636719-2.148437-29.871094 8.585937-.53125 16.222656-5.648437 19.976563-13.390625 3.757812-7.738281 3.050781-16.902344-1.851563-23.976562 8.585937-.492188 16.023437-6.121094 18.824219-14.25-2.445313-7.128906-4.125-14.496094-5.007813-21.984375-6.082031-6.09375-15.238281-7.917969-23.195312-4.625-7.957031 3.296875-13.140625 11.0625-13.132813 19.675781.027344 3.78125 1.085938 7.488281 3.058594 10.71875-.113281 0-.226562 0-.335938 0-9.515624-.019531-18.136718 5.605469-21.957031 14.320312-3.816406 8.714844-2.109375 18.863282 4.355469 25.847657zm0 0" fill="#735109"/><path d="m281.605469 216.167969c7.527343-7.964844 8.644531-20.039063 2.710937-29.253907-5.9375-9.210937-17.394531-13.1875-27.757812-9.625 6.648437-5.855468 9.527344-14.898437 7.492187-23.523437-2.03125-8.621094-8.652343-15.421875-17.21875-17.6875-8.5625-2.265625-17.679687.371094-23.714843 6.859375-.496094 4.265625-1.222657 8.5-2.183594 12.6875v.054688c-.945313 4.148437-2.113282 8.242187-3.496094 12.265624 1.988281 5.949219 6.273438 10.859376 11.90625 13.632813 5.628906 2.773437 12.132812 3.183594 18.0625 1.132813-6.875 6.542968-9.222656 16.535156-5.980469 25.453124 3.242188 8.917969 11.460938 15.070313 20.933594 15.667969-4.367187 4.675781-6.660156 10.914063-6.355469 17.304688.300782 6.390625 3.167969 12.386719 7.953125 16.632812v-1.769531h33.769531c6.183594-6.773438 7.933594-16.492188 4.492188-24.996094-3.441406-8.5-11.457031-14.273437-20.613281-14.835937zm0 0" fill="#735109"/><g fill="#f9f2cc"><path d="m392.007812 88c4.417969 0 8 3.582031 8 8s-3.582031 8-8 8c-4.417968 0-8-3.582031-8-8s3.582032-8 8-8zm0 0"/><path d="m384.007812 176c4.417969 0 8 3.582031 8 8s-3.582031 8-8 8c-4.417968 0-8-3.582031-8-8s3.582032-8 8-8zm0 0"/><path d="m344.007812 112c4.417969 0 8 3.582031 8 8s-3.582031 8-8 8c-4.417968 0-8-3.582031-8-8s3.582032-8 8-8zm0 0"/></g><path d="m56.007812 88c.453126 34.902344 16.160157 102.441406 43.023438 124.800781 30.6875 25.574219 75.265625 25.574219 105.953125 0 27.261719-22.695312 43.023437-89.320312 43.023437-124.800781zm0 0" fill="#f7ddad"/><path d="m256.007812 160-56-64-160 64v-52c0-59.648438 48.351563-108 108-108 59.644532 0 108 48.351562 108 108zm0 0" fill="#855e0a"/><path d="m200.007812 160c0 4.417969-3.582031 8-8 8-4.417968 0-8-3.582031-8-8s3.582032-8 8-8c4.417969 0 8 3.582031 8 8zm0 0" fill="#453105"/><path d="m120.007812 160c0 4.417969-3.582031 8-8 8-4.417968 0-8-3.582031-8-8s3.582032-8 8-8c4.417969 0 8 3.582031 8 8zm0 0" fill="#453105"/><path d="m168.007812 192c0 8.835938-7.164062 16-16 16-8.835937 0-16-7.164062-16-16zm0 0" fill="#f7c7a6"/><path d="m264.855469 248c-9.386719-.199219-41.9375 2.960938-48.847657 8.183594v53.175781c0 10.738281-5.464843 10.640625-16 10.640625-13.640624-.003906-26.632812 5.816406-35.707031 16h-24.589843c-9.074219-10.183594-22.066407-16.003906-35.703126-16-10.539062 0-16 .097656-16-10.640625v-53.167969c-6.914062-5.222656-39.464843-8.382812-48.847656-8.183594-22.246094 1.210938-39.546875 19.804688-39.1523435 42.082032v157.910156h303.9999995v-157.910156c.398438-22.28125-16.90625-40.878906-39.152343-42.089844zm0 0" fill="#f5f5f5"/><path d="m288.007812 232v184c-8.835937 0-16 7.164062-16 16s7.164063 16 16 16h136c8.835938 0 16-7.164062 16-16s-7.164062-16-16-16v-184zm0 0" fill="#e2e2e2"/><path d="m304.007812 232h104v176c0 4.417969-3.582031 8-8 8h-88c-4.417968 0-8-3.582031-8-8zm0 0" fill="#f4c734"/><path d="m328.007812 232v48c0 8.835938 7.164063 16 16 16 8.835938 0 16-7.164062 16-16v24c0 8.835938 7.164063 16 16 16 8.835938 0 16-7.164062 16-16v-72zm0 0" fill="#f9f2cc"/><path d="m320.007812 296c4.417969 0 8 3.582031 8 8v80c0 4.417969-3.582031 8-8 8-4.417968 0-8-3.582031-8-8v-80c0-4.417969 3.582032-8 8-8zm0 0" fill="#e0b730"/><path d="m392.007812 352c4.417969 0 8 3.582031 8 8v24c0 4.417969-3.582031 8-8 8-4.417968 0-8-3.582031-8-8v-24c0-4.417969 3.582032-8 8-8zm0 0" fill="#e0b730"/><path d="m424.007812 428h-136c-2.210937 0-4-1.789062-4-4s1.789063-4 4-4h136c2.207032 0 4 1.789062 4 4s-1.792968 4-4 4zm0 0" fill="#ccc"/><path d="m248.007812 249.039062c-5.25.546876-10.875 1.289063-16 2.21875v114.902344c-20.996093 21.632813-49.855468 33.839844-80 33.839844-30.148437 0-59.007812-12.207031-80-33.839844v-114.902344c-5.128906-.929687-10.753906-1.671874-16-2.21875v198.960938h192zm0 0" fill="#f49e34"/><path d="m166.40625 424 7.359375-4.902344c3.675781-2.453125 4.667969-7.421875 2.21875-11.097656-2.453125-3.675781-7.421875-4.667969-11.097656-2.214844l-12.878907 8.613282-12.90625-8.597657c-3.675781-2.453125-8.644531-1.460937-11.09375 2.214844-2.453124 3.675781-1.460937 8.644531 2.214844 11.097656l7.382813 4.886719-7.359375 4.902344c-3.675782 2.453125-4.667969 7.421875-2.214844 11.097656s7.417969 4.667969 11.09375 2.214844l12.882812-8.613282 12.902344 8.597657c3.675782 2.453125 8.644532 1.460937 11.097656-2.214844 2.449219-3.675781 1.457032-8.644531-2.21875-11.097656zm0 0" fill="#c47f2a"/></svg>